<svg width="731" height="399" viewBox="0 0 731 399" fill="none" xmlns="http://www.w3.org/2000/svg">
<g clip-path="url(#clip0)">
<path d="M126.3 230.2C124.3 229.6 118.5 218.6 118.2 216C117.6 210.7 121.7 207.1 121.8 201.9C118.7 201.5 115.4 201.7 112.3 201.5C111.1 196.6 111.8 192 106.9 190.4C101.7 188.7 101.8 193.5 96.4 192.6C88.9 191.3 91.8 175.6 92 169.6C99.6 171.1 101.1 161.6 107.6 160.5C111.8 159.8 113.6 164.1 117.3 164.3C120.6 164.5 126.2 160.4 129.1 159.1C130.9 162.2 131 165.7 132.2 168.7C133.7 172.3 136.6 173.2 136.8 177.7C136.8 172.2 138.9 165.5 141.4 159.1C148.4 157.3 154.1 152.6 156.3 146.2C157.5 142.6 155.9 141 158.3 137.7C160 135.3 163.9 134.1 166 132C172.7 125.1 172.2 125 181.7 124C187.4 123.4 191.8 121.5 196.5 117.9C193.1 117.9 183 118.9 181.7 115.6C179.3 109.7 188.7 106.5 192.2 106C203.7 104.4 208.7 106.9 217.7 98.5C214.2 96.8 207.4 96.7 205.6 93.5C203.8 90.3 205.8 84.3 203.9 80.7C195.2 83.5 198.3 78.5 192.2 75.3C186.9 72.5 179.4 77.5 178 81.6C175.5 88.8 180.2 92 174.1 98.5C169.6 103.3 162.1 107.7 156.1 110.3C153.3 105 153.8 101.3 150.9 97.1C148.9 94.2 147.2 95.5 145.8 91.7C144.7 88.6 145.7 83.2 145.9 79.9C153.2 77.3 162.3 72.6 168.3 67.9C172.1 64.9 174.2 63.1 178.5 61.8C182.9 60.4 186.7 62.7 189.1 57.4C188.7 57.3 188.2 57.2 187.8 57.1C186.7 48.2 202.7 55.5 204.9 61.2C205.5 62.7 206.1 64.4 205.6 66.2C205.2 68 202 69.8 202 69.9C201.9 75.4 207.2 75.4 212.4 77.5C213.9 74.3 211.6 72.1 208.6 70.8C211.6 70.3 213.8 68.4 213.7 65.5C211.3 65.2 210.9 63.8 209.1 63C210.5 62.3 211.7 60.5 213.6 60.1C213.9 56.7 214 53.1 212.8 49.9C206.5 49.5 203.7 49 198.6 47C191.3 44.1 189.2 47.2 181.6 46.9C181.4 49.9 181.3 53 182.3 55.7L181.6 56.4C177.6 64.2 173.9 52.6 169.8 52C170.2 54.9 171.5 57.2 171.6 60.1C163.7 59.5 158.3 64.6 150.2 64C143.8 63.5 135.2 63.1 129.1 61.9C122.2 60.5 119.3 58.4 112.1 58.7C107 59 101.6 59 96.6 58.7C94 58.5 92.5 57 89.9 57.3C87.8 57.5 87.8 60.1 86 60.2C78.5 60.4 76.3 53.4 68.7 52.7C65.5 52.4 63.6 53.9 60.7 54.2C52.2 55.1 42.1 51.5 33.9 53.5C26.3 55.4 23.9 63.3 16.4 67.7C9.2 72 2.1 76 0 84.7C14 89.8 15.8 84.6 30.1 81.5C36.7 80.1 50.1 84.6 54.9 89.6C58.1 92.9 58.1 105.8 56 110.5C54.4 114.1 47.4 116.5 44.9 120.3C41.2 125.8 41.9 126.9 44.7 132.6C40.8 133.8 35.6 141.2 34.4 144.7C37.9 145.9 42.4 147.1 45.6 149.2C51 152.7 50.2 154.1 50.1 161.5C50 170.3 48.2 183 58.1 187.1C55 181.1 56.4 169.9 57 162.9C60.2 172.8 67.4 171.8 67.1 182.4C66.8 193.5 72.5 198.5 82.6 202.5C91.1 205.8 101.3 203.6 109.9 208.6C116.5 212.4 114.8 215.7 116.6 221.9C117.9 226.2 121.4 232.7 126.3 230.2Z" fill="#E9E9FF"/>
<path d="M298.3 54.3C297.5 50.1 291.7 47.6 299.2 44.9C302.2 43.8 304.9 44.6 307.9 43.9C311.1 43.1 309.8 43.4 310.6 40.5C311.3 38 310.5 37.7 313.3 36C314.4 35.3 315.4 35.5 316.7 34.6C318.1 33.6 318.5 32.1 320 31.6L318.1 30.5C316.6 30.5 314.6 30.9 313.2 30.4C311.2 29.8 310.3 28.3 308 28.2C306.2 28.2 304.3 28.8 302.4 29C298.3 29.3 294.8 28.1 291 28.3C287.3 28.5 284.1 30.8 280.3 31.2C276.9 31.5 273.2 32.2 269.8 31.9C267.4 31.7 265.5 31 263.1 30.8C260.3 30.5 258.1 31.9 255.4 32C249.9 32.1 245.2 26.3 239.5 26.4C235.6 26.5 232.1 29 228 28.3C225.6 27.9 224.5 26.5 222 26.8C218.3 27.1 215.4 30.9 212.1 31.9C210 32.6 207.6 31.6 205.5 32.4C202.9 33.4 201.4 35.6 198.4 36.1C196.9 36.3 195.2 36.1 193.7 36.2C193.2 41.5 205.6 39.9 208.7 39.5C211.8 39.2 214.2 37.6 216.7 36.8C219.8 35.9 223 36.5 226.4 36.5C230.2 36.5 231.7 34.3 235.1 33.5C236.7 33.1 243.9 33.2 244.8 34.7C246.7 37.8 240.7 38.2 238.9 38.4C236 38.7 234.3 38.7 232.3 41C234.7 43.4 239.9 41.3 242.7 43.2C245.6 45.2 242.8 52.8 247.8 52.6C247.8 56.8 247.7 58.2 244.4 59.3C241 60.5 239.4 58.9 239.2 63.8C239 70.5 245.8 68.9 247.4 74.4C248.3 77.4 248.6 85.9 254.1 80.4C255.6 78.9 254.8 76.9 256.7 75.1C258.7 73.2 262.2 73.1 264.4 71.4C266.7 69.6 267.1 67.7 270.2 66.6C272.5 65.8 274.8 66 276.8 64.9C279.1 63.7 280.4 61.3 282.9 60.5C284.6 59.9 286.9 60.5 288.7 60.1C292 59.1 299.1 58.1 298.3 54.3Z" fill="#E9E9FF"/>
<path d="M236.8 261C232.3 259.2 227.2 260.3 224.5 256.3C223.6 254.9 222.9 250.6 221.4 250.2C220.9 250.1 217.5 251.7 216.5 251.8C212.8 252.5 207.4 254.8 203.8 253.9C203.2 248.7 204.4 243 204.1 237.6C202.1 237.5 199.4 238.1 197.5 237.6C194.1 236.7 194.5 233.6 191.6 231.7C189.6 230.4 186.9 230.8 184.4 229.6C181.7 228.3 179.7 225.3 177.2 224.1C174.3 222.6 171.1 221.5 168 219.5C164.8 217.5 161.7 216.7 157.7 215.9H155.5C152.9 218.2 155.2 220 156 222C156.6 223.5 158.4 228.7 154.5 228.7C151.5 228.6 153.6 225 152.9 223.1C152.5 222.2 150.8 221.4 150.4 220.4C150 219.4 150.3 217.5 150.2 216.4C148.9 216.3 147.6 216.3 146.4 216.4C146.2 223.3 141.5 223.3 135.5 224.3C134.8 226.9 137 227.1 137.4 228.8C138.1 232.3 135 233 134 235.6C133.1 238.1 134.8 237.8 135.1 240.3C135.4 244 132.2 245.2 129.5 247.1C126.7 249.1 123.7 250.9 122.4 254.5C120.9 259 122.6 259.3 125.7 261.2C130.8 264.4 128.4 268.7 128.7 274.2C129.8 274.6 130.7 275.2 132 275.4C132.6 277.9 135 278.9 136.3 280.7C138.1 283 139 286.1 139.5 289.4C143.5 289.8 153.6 287.1 155.1 289.6C156.4 291.6 154.3 294.2 154.8 295.9C155.8 299.5 160.3 298 163.6 298.7C162.3 300.8 160.7 302 158.1 301.9C157.5 305.3 159.9 306.9 160.5 309.8C159 310.6 154.1 313.8 153.8 315.3C153.1 318.5 158.5 320.7 157.6 324.5C151.3 325 154.2 331.6 154 335.4C156.5 336.8 159.3 337.2 161.8 338.6C161.9 342.3 162 346.1 162.2 349.7C162.3 352 161 357.9 162.3 359.8C162.9 360.7 164.9 360.2 165.6 361.2C166 361.8 165.8 362.5 166.2 363.1C167.2 364.8 166.2 365 167.8 366.4C169.3 367.7 170.4 366.7 171.2 368.7C171.6 369.8 170.8 372.7 170.4 373.6C169.5 375.8 165.8 379 167 381.7C167.5 382.8 170.8 384.5 171.9 385.4C173.3 386.6 174.9 388.2 176 389.7C178.4 392.7 180.2 397.9 185.1 397.9C190.4 397.8 190.1 392.1 190.6 388.2C188 388.6 188.1 387.5 186.8 386.7C183.9 384.9 183.3 384.1 179.1 384C178.2 380.6 183.9 378.6 185.1 376C187.9 369.8 180.1 373.3 177.6 368.5C181 365.3 183.7 367.5 187.7 367.7C196 368 188.1 363.3 188.8 359.2C193.5 358.8 201.7 355.5 200.7 349.4C194.9 349.1 189.9 351.7 190.3 344.5C195.3 344.3 198.8 347.1 203.4 344.9C209.1 342.2 211.3 333.6 213.8 328.3C215.6 324.5 216.5 316.4 220.8 314.7C225.3 313 231.2 316.5 235.5 313.5C234 309.4 230.9 306.2 231.4 301.5C231.9 296.8 234.9 292.9 235.9 288.4C236.7 284.7 237.5 282.3 239.4 279.1C240.7 276.9 243.4 272.3 243.7 269.8C244.3 265.7 239.9 262.2 236.8 261Z" fill="#E9E9FF"/>
<path d="M593.8 215.8C595.3 219.9 591 224.6 591.9 228.7C593.2 222.8 594.4 217.8 596.4 211.9C601.7 210.5 601.8 216.8 603.3 219.8C605.6 224.4 609.2 226 614 227.3C617.2 222.5 623.1 219.2 623.3 213.4C623.5 208 616.3 207.9 613.6 203C611.7 199.6 606.5 189.7 612.3 187.6C616.5 186.1 621.4 194.6 622.3 198.3C623.6 196 624 193 625.4 190.8C627.6 187.2 628.8 188.1 631.7 186.2C634.8 184.1 640.3 180.3 642.3 176.9C644.8 172.6 643.6 172.8 640.3 169.6C634 163.5 634.6 161.1 635.9 152.4C636.2 150.4 637.6 145.3 636.2 143.6C633.1 139.9 630.7 145.2 628.4 145.7C623.7 146.6 623.8 141 627.5 137.6C630.7 134.6 634.4 136.9 638.4 139.3C641.8 141.3 659 156 661.4 149.2C656.5 146.5 649.6 145.3 648.4 139.3C646.4 129.8 654.2 132.5 658.9 129.4C665.2 125.3 662.5 106.2 657.3 100.9C652.6 96.1 648.1 100.8 642.5 98.4C640.6 97.6 637.9 94.6 637.4 92.9C636.1 88.6 638.1 89.1 640.4 87.9C641.2 87.5 643 87.8 643.9 87.4C645.2 86.9 646 85.5 647.1 84.9C650 83.4 650.7 83.3 653.8 84.4C658.7 86.2 663.5 91.1 666.8 84C667.6 82.3 667 79 667.5 77C672 77.1 676.2 74.8 680.7 75.5C680.9 79.3 680.5 80.2 678.9 83.1C678 84.7 674.2 88.7 674.3 90.3C674.3 94.3 686.1 101.1 689.4 103.8C695.7 108.9 696.7 102.4 694.7 96.7C693.6 93.4 693 93.4 690.6 91.4C687.7 89 683.9 88.2 685.3 83.4C689.2 83.8 694.2 82.4 698.5 82.3C704.1 82.2 706.3 80.7 707.1 74.9C703.3 75.5 701 72.6 701.7 68.9C705.3 68.3 710.8 72 713.6 70.8C719.9 68.2 709.9 65.1 707.1 64.8C696.5 63.8 685.8 65 676.2 60.2C671.1 57.6 666.8 57.8 661.3 58.8C659 59.3 655.7 60.4 653.6 59.8C651.7 59.3 650.8 57 648.9 56.4C647.5 55.9 645.8 56.5 644.4 56.3C638.5 55.6 633 55.7 626.8 55.7C624.8 55.7 622.3 55.2 620.6 55.2C617.2 55.2 613.6 57.1 609.6 58.4C607.4 54.3 600.1 48 594.9 48.8C590.9 49.4 590.2 54.2 587.5 55.1C586 55.6 586.5 55.2 584.7 55.1C583.7 55.1 583.5 53.3 582.6 53.1C581.3 52.8 580.3 53.9 579.7 53.8C575.2 53.2 568.9 50.9 564.2 51.3C558.3 51.8 556.6 54.8 550.3 53.3C546 52.3 542.4 49.9 538.3 48.7C541.2 47.9 546.6 47 548.2 44.3C543.5 42.9 536.4 41.1 531.4 41.3C526.1 41.5 520.9 48 516.4 47.4C513.3 47 512 44.5 508.3 44.8C503.9 45.1 500.2 46.3 495.5 46.3C490.4 46.3 484.3 45.9 484.1 52.6C488.4 54.1 488.1 56.7 488 60.7C484.6 62.5 479.4 62.9 477.7 58.8C475.7 54.1 479.6 51.2 473 49.8C470.5 49.3 459.9 49 460.2 51.7C460.8 56.8 471.6 53.7 469.5 60.7C464.6 62.9 462.4 62.5 458.1 59.8C455.3 58 456.1 57.6 452.8 56.8C448.8 55.9 444.1 56.9 440.3 57.9C439.2 61.1 435 61.5 432.3 63.1C429.6 64.7 427.9 66.6 425.7 68.9C423.2 71.4 419.6 76 415.8 74.2C413.2 73.1 411.8 67.8 412.4 65.4C415 65.4 416.6 67.3 418.2 65.1C420.7 61.7 416.5 59.4 413.8 58.8C410.7 58.1 408.5 59.5 405.4 59.4C400.7 59.2 396.5 56.2 391.5 55.9C382.2 55.4 371.7 59.1 363.7 63.3C361.2 64.6 349.1 75.7 349.5 77.8C350 80.4 354.5 80.3 356.1 81.3C358 82.5 359.3 85.5 362 86.5C366 87.9 372.2 89.2 376.6 89.3C387 89.7 379.3 83.7 378.5 79.3C378.4 78.5 378.7 73.8 379.1 72.9C380.9 69.2 381.7 70.6 384.8 69.3C387.4 68.2 389.6 65.2 392 68.2C393.8 70.5 390.8 76.2 390 78.2C392 80.4 408.4 78.5 400.5 84.8C400.4 84.8 400.4 84.9 400.3 84.9C398.1 85.2 396.2 85.4 395.1 85.6C394.8 85.6 394.5 85.7 394.3 85.7C394.2 85.7 394.2 85.7 394.3 85.7C393.5 85.5 392.7 85.5 391.9 85.7C387.9 86.6 386.5 92.3 384 95.2C379 100.7 376.5 96.8 370.5 97.2C367.2 97.4 363.9 99.3 360.6 100.2C356 101.4 347.4 103 344 106.6C342.4 108.3 342.6 110.4 341.1 112C339.3 113.9 335.6 112.6 336.7 117.3C338.1 117.4 339.3 118.6 340.6 118.8C341.2 121.2 338.5 129 336.2 130.3C331.9 132.7 327.9 126.6 325.3 124.8C324.4 126.1 322.4 128.2 322.1 129.8C321.8 131.4 323.3 132 323.3 133.9C323.3 137.5 322.3 141.2 318.4 142.3C318.3 142.6 318.2 142.9 318.2 143.2C324 147.4 330 144.9 335.8 142.3C343 139 342.8 125.5 352.2 128.6C351.8 117.3 362.6 128 365.1 129.8C367.6 131.6 369.9 131.8 372 134.5C373.2 136 372.5 137.7 373.4 138.9C374.1 139.8 376 140.5 376.9 141.6C375.4 135.5 375.5 132.6 371.9 127.3C369.1 123.1 368.6 115.8 376 121C378.9 123 383.4 129.4 384.6 132.6C386.5 137.6 385.6 144.9 393.2 144.1C387.7 138 397 135.6 401.4 135.8C401.9 139.3 401.4 143.5 404.1 145.2C406.6 146.8 413.5 146 416.4 145.8C419 145.6 422.9 143.3 425.6 144.3C428.6 145.3 426.9 144.8 427.9 147.3C429.1 150.1 428.4 153.7 427.4 156.3L427.9 154.3C418.4 158.7 397.9 168.7 396.3 151.4C392.1 150.2 386.5 156.4 391.5 158.4C388.5 161.4 378.7 161.6 374.5 160.2C372.6 159.6 365 156 364.7 153.8C364.3 151.1 368.2 149.3 368.5 146.4C364.2 147.2 364.3 141.7 360.5 142.2C358.8 142.5 358.3 144.8 356.8 145.4C354.6 146.2 351.1 145.1 349 144.9C343.8 144.4 337.4 143 332.7 145.9C331.2 146.8 330.4 148.6 328.7 149.5C325.8 150.9 321.7 149.3 319.7 152.4C318.6 154 319.8 156.5 319.4 158.3C318.7 161 318 160.4 316.7 162.8C315.5 165 315.4 168.4 314.2 170.4C311.8 174.3 307.1 175.7 303.4 178.3C301.2 179.8 295.3 184 295.9 187.4C296.4 190.1 299.5 188.7 299.4 192.3C299.3 194.6 293.8 198.1 292.6 199.9C295.1 200.5 295.7 201.8 296.9 202.9C296.6 202.6 296.8 204.8 297 205C297.5 205.7 299.3 205.6 299.4 206C302 211.1 300.3 216.5 303.4 221.2C308.3 228.8 317.5 235.6 327 236.3C336.8 237 340.1 226.5 349.5 227.8C353.1 228.3 360.4 230.7 361.8 234.7C363.3 238.8 357.1 245.2 355.3 248.8C357 250.2 359.3 251.4 361.2 252.3C356.8 253.8 352.6 256.2 356.3 259.9C360 263.6 363.3 260.7 362.5 267.6C368.7 267.5 374.3 270.8 374.7 277.3C375 281.6 375.4 279.6 372.2 283.1C369.8 285.9 369.2 285.4 368.7 289.7C368.3 293.4 368.2 292.4 369.5 296.7C370.5 300 370.2 300.6 371.9 303.2C373.9 306.2 374.7 306.6 375.8 310.4C376.6 313.3 376.1 317 380.3 317.6C379.4 324.2 386 329.3 386.8 335.4C387.3 338.8 384.7 344.3 386.3 347.4C387.9 350.7 393.5 350.9 396.3 348.8C399.5 346.4 398.7 342.6 403.6 341.4C406.7 340.6 407.5 342 409.2 339.9C410.4 338.5 409.8 336.1 411.8 334.1C414.6 331.3 418.6 331.1 422 329C427.6 325.6 427.4 322.1 429.6 316.4C427.7 315.2 424.9 309.9 425.6 307.5C426.9 303.2 436.3 299.4 439.4 297.1C445.7 292.5 441.5 290.9 439.9 285.8C438.2 280.4 441.1 275.9 444.1 271.6C442 271.3 440.6 269.5 438.5 269.1C435.6 268.5 430.9 270.5 429.4 266.8C428.6 264.9 431.2 260.3 433.4 260C435.9 259.7 436.4 261.7 438.5 263.1C441 259.9 442.4 257.1 445.6 254.7C447.3 253.4 449.4 253.3 451 251.6C453.5 249.1 454.1 246 455.9 242.9C459.1 237.5 464.4 236.5 468.9 232.2C472.5 228.7 472.1 225.1 471.9 220.3C465 219.2 458.3 224.4 452.9 217.4C452.7 217.1 452.5 216.8 452.3 216.5C452.7 216.7 453.1 216.8 453.6 216.8C457.8 217.4 461.5 211.7 465.2 209.8C469.7 207.6 475 207.4 479.1 204.1C481.3 202.3 481.2 200.2 482.5 198.4C485 194.9 489.2 193.2 492.2 189.8C491.4 188.6 490.1 186.8 488.7 186C487.3 185.3 484.7 186 483.6 185.3C480.5 183.3 480.8 178.5 480 174.9C475 174.8 475 181.7 471.5 182.7C467.2 183.9 465.8 174.8 464.3 171.9C462.3 168 458.4 164.4 461.5 160.3C461.6 160.2 461.7 160 461.9 159.9L464.6 159.3C464.6 159.3 464.6 159.3 464.6 159.4C463.1 171.6 474.3 170.7 483.2 170.8C484 174.8 484 180.6 487.5 182.3C493.2 185.1 499.5 177.7 504.7 179.5C507.4 180.4 510 184.4 512.3 186.2C517.8 190.7 520.7 189.5 528.4 188.3C529 193.7 527.5 200.2 529.5 205.2C531.3 209.8 535.4 213.4 537 218.1C538.8 223.5 543.4 232.7 544.5 220.6C545.2 212.8 539.8 209 545.3 201.6C548.7 197 553.8 191 558.1 187.2C563.8 182.2 570.8 190.4 576.4 194.1C582.8 198.3 586 202 589.2 208.6C589.7 211 592.9 213.2 593.8 215.8ZM447.4 208.3C444.9 205.8 440.6 203.9 437.7 200.9C432.3 195.5 429.9 189.4 426.8 183C423.8 176.9 421.3 174.2 421.5 167C424.5 167.6 426.7 172.9 428.3 175.4C430.4 178.6 433.1 181.2 435.2 184.3C436.5 186.2 436.7 189 438.3 190.7C439.5 192 441.4 192.2 442.5 193.4C445.7 196.8 445.9 200.1 446.8 204.5C447 205.6 447.2 207 447.4 208.3Z" fill="#E9E9FF"/>
<path d="M451.8 297.7C446.6 302.1 450.9 301.1 451.2 306.5C451.5 311.8 445.6 312.3 443.7 316.4C445.3 320.1 450.4 319 453.7 318.9C455.3 315.5 458.7 314.2 460.8 311.3C462.6 308.8 464.4 304.8 465.4 301.9C466.9 297.5 464.3 293 464.7 289C463.3 290 462.6 289.9 460.7 290.9C457.3 292.6 454.6 295.3 451.8 297.7Z" fill="#E9E9FF"/>
<path d="M464.7 289C464.9 288.9 465.1 288.7 465.4 288.5C466.8 287.4 467.1 285.8 468.8 285L465.8 286C465.1 287 464.8 288 464.7 289Z" fill="#E9E9FF"/>
<path d="M723.3 325.3C722.3 322.4 722.2 320.4 720.8 317.3C720.1 315.9 719.8 311.6 718.7 310.5C717 308.7 714.1 310.6 712.5 307.8C711.2 305.7 712.2 298.3 712 296.1C711.6 292.6 712.1 287.4 710.4 284.4C707.7 284.7 705 283.9 702.4 283.5H701.4C707 285.6 702.8 297.2 697.9 298.9C685.9 302.9 688.9 287.2 690.4 281.6C684.4 280.5 684.9 283.8 681.4 286.4C680.1 287.4 677.4 286.8 676.1 288.6C674.9 290.4 676.2 292.6 674.6 294.6C670.8 299.4 666 296.5 663.5 292.5C662.8 291.4 663.7 288.1 661.5 288.4C659.9 288.6 660.5 294.6 659.6 296C656.8 300.5 648.7 302.2 644.8 306C643.4 307.3 642.2 309.5 640.5 310.3C638.4 311.3 635.5 310.3 633.4 312C629 315.5 629.2 321.8 629.7 326.4C630.5 334.7 625.7 341.9 626.2 350.2C634.6 353.4 638.9 342 646.5 339.5C653.4 337.2 662.6 336.2 669.9 336.4C669 340.1 669.3 345.7 674 345.7C677.6 345.8 679.3 340.4 683.8 341.4C684.2 346.4 683.8 352.4 681.6 357C684.8 358.4 687 358 690.4 357.8C691.8 357.7 695.2 358.5 696.4 357.9C697.8 357.1 697.6 355.7 698.6 354.8C699.5 354 700.3 353.3 701.4 352.3C707.3 347.1 717.2 346.8 715.8 336.6C715.2 336.5 714.4 336.3 713.8 336.2C716 332.9 726.7 335.6 727.4 330C723.4 330.5 724.1 327.8 723.3 325.3Z" fill="#E9E9FF"/>
<path d="M625.7 259.8C628.2 262.1 633.4 261.4 636.5 261.4C640.4 261.4 643 260.1 643.6 255.7C643.9 253.3 642.7 251.5 645.1 249.7C647.5 247.8 649.5 248.4 647.3 244.8C646.3 243.1 644.1 241.2 645.3 238.8C646.7 235.9 649.2 238.4 651.4 237.6L652.4 236.6C650.2 237.5 646.6 236.9 645.1 234.6C643.9 232.6 644.4 231.2 641.2 231.7C641.5 236.6 632.7 235.5 630.6 238.6C629.4 240.3 629.9 242.4 628.8 244.1C627.2 246.7 624.8 245.7 622.3 246.6C621.9 247.6 619.9 249.3 620.5 250.6C621 251.7 623.2 251.6 624 253.1C625.1 255.3 623.6 257.9 625.7 259.8Z" fill="#E9E9FF"/>
<path d="M617.4 268.4C617.5 265.6 618.3 265.4 616.2 263.2C614.7 261.6 612.4 259.6 611.7 257.2C610.6 253.8 611 252.5 607.7 250.5C605.2 249 604.9 248.1 603 245.8C601.6 244.1 599.8 243.1 598 241.7C596.4 240.5 595.6 239.1 594.5 237.5C592.9 235.3 592.3 235.5 589.5 235.5L588.3 233.5C587.2 235.5 591.8 242 592.7 244.2C594.4 248.6 597.4 251.3 600 255.2C601.1 256.8 601.9 258.7 603 260.4C604.4 262.6 606.3 263.5 608.5 264.8C612.4 267 612.1 275.6 618.2 274.7C618.1 272.7 617.4 270.6 617.4 268.4Z" fill="#E9E9FF"/>
<path d="M639.8 277.1C642.8 276.8 659.2 277.8 658.8 272.7C653.7 272.1 650.2 270 645.1 269.7C638.1 269.3 633.4 275.4 625.9 272.7L624.9 272.2C622.3 274.4 628.1 277.4 629.9 277.7C633.2 278.1 636.7 277.4 639.8 277.1Z" fill="#E9E9FF"/>
<path d="M667 241.5C666 238.9 663.9 238.1 661 238.5C659.7 238.7 658.7 239.3 657.3 239.3C655.5 239.2 654.2 238 652.4 238.3L652.2 238.6C654.8 241.4 658.2 241.5 661.9 241.9C661.3 243 660.2 242.4 658.9 242.6C657 242.9 655.8 243.6 654.5 245C656.4 245.2 658.6 245 660.6 245.1C659.2 247.2 656.5 247.6 655.9 250.5C655.5 252.3 655.9 254.8 656 256.6C657.3 256.1 658.7 255.2 659.5 254C660.4 252.4 659.6 251.1 661.8 250.2C665.5 248.6 667.1 252.9 667.1 255.9C668.4 253.9 666.6 249.2 667.1 246.5C667.1 244.6 667.7 243.4 667 241.5Z" fill="#E9E9FF"/>
<path d="M728.3 277.9C726.2 275.9 724.8 275.2 723.3 272.6C722 270.5 720.7 268.1 718.8 266.5C717 265 714.4 264.2 713.8 261.8C712 261.1 710.3 260 708.4 259.5C706.8 259.1 704.2 259.2 702.8 258.3C701.4 257.3 701.1 254.4 699.1 254.3C697.3 254.2 696.2 256.7 694.4 257.4C690.4 259 688.1 254.2 686 251.8C683.5 249 681.8 250 679.1 251.1C678.8 251.1 678 251.4 677.5 251.4C677.4 252.7 677.4 254 677.5 255.3C678.9 255.4 681.4 254.8 682.7 255.3C684.4 256.1 683.9 257.1 684 258.8C686.2 258.6 686.5 261 687.9 262.1C689.1 263 692.2 264.6 693.6 265C692.3 268.7 691.5 272 695.1 275C698.7 278 705 276.6 709.1 276.2C712.2 275.9 715.5 276.2 718.6 276.2C721 276.2 720.5 275.9 722 278C723 279.4 724.5 282.5 726.2 283.1C727.2 283.5 729.3 283.1 730.4 283.1C731 280.8 729.8 279.2 728.3 277.9Z" fill="#E9E9FF"/>
<path d="M563.5 211.4C563.5 213.8 561.5 215.8 559.1 215.8C556.7 215.8 554.7 213.8 554.7 211.4C554.7 209 556.7 207 559.1 207C561.5 207 563.5 209 563.5 211.4ZM561.3 211.4C561.3 210.2 560.3 209.2 559.1 209.2C557.9 209.2 556.9 210.2 556.9 211.4C556.9 212.6 557.9 213.6 559.1 213.6C560.3 213.6 561.3 212.6 561.3 211.4Z" fill="#91A8F6"/>
<path d="M636.8 51.5H612.1C611.5 51.5 611 52 611 52.6C611 53.2 611.5 53.7 612.1 53.7H636.8C637.4 53.7 637.9 53.2 637.9 52.6C637.9 52 637.4 51.5 636.8 51.5Z" fill="#91A8F6"/>
<path d="M604.2 51.5H599.4C598.8 51.5 598.3 52 598.3 52.6C598.3 53.2 598.8 53.7 599.4 53.7H604.2C604.8 53.7 605.3 53.2 605.3 52.6C605.3 52 604.8 51.5 604.2 51.5Z" fill="#91A8F6"/>
<path d="M625.2 60.2C625.2 60.8 624.7 61.3 624.1 61.3H621C620.4 61.3 619.9 60.8 619.9 60.2C619.9 59.6 620.4 59.1 621 59.1H624.1C624.7 59.1 625.2 59.6 625.2 60.2ZM616.7 60.2C616.7 60.8 616.2 61.3 615.6 61.3H610.2C609.6 61.3 609.1 60.8 609.1 60.2C609.1 59.6 609.6 59.1 610.2 59.1H615.6C616.2 59.1 616.7 59.6 616.7 60.2ZM605.9 60.2C605.9 60.8 605.4 61.3 604.8 61.3H599.4C598.8 61.3 598.3 60.8 598.3 60.2C598.3 59.6 598.8 59.1 599.4 59.1H604.8C605.4 59.1 605.9 59.6 605.9 60.2Z" fill="#91A8F6"/>
<path d="M235.7 123.8C235.1 123.8 234.6 124.3 234.6 124.9V127.4C234.6 128 235.1 128.5 235.7 128.5C236.3 128.5 236.8 128 236.8 127.4V124.9C236.8 124.3 236.3 123.8 235.7 123.8Z" fill="#91A8F6"/>
<path d="M232.9 121.3H230.4C229.8 121.3 229.3 121.8 229.3 122.4C229.3 123 229.8 123.5 230.4 123.5H232.9C233.5 123.5 234 123 234 122.4C234 121.8 233.5 121.3 232.9 121.3Z" fill="#91A8F6"/>
<path d="M235.7 116.1C235.1 116.1 234.6 116.6 234.6 117.2V119.7C234.6 120.3 235.1 120.8 235.7 120.8C236.3 120.8 236.8 120.3 236.8 119.7V117.2C236.8 116.6 236.3 116.1 235.7 116.1Z" fill="#91A8F6"/>
<path d="M241.1 121.2H238.6C238 121.2 237.5 121.7 237.5 122.3C237.5 122.9 238 123.4 238.6 123.4H241.1C241.7 123.4 242.2 122.9 242.2 122.3C242.2 121.6 241.7 121.2 241.1 121.2Z" fill="#91A8F6"/>
<path d="M507.8 53.7C507.2 53.7 506.7 54.2 506.7 54.8V57.3C506.7 57.9 507.2 58.4 507.8 58.4C508.4 58.4 508.9 57.9 508.9 57.3V54.8C508.9 54.2 508.4 53.7 507.8 53.7Z" fill="#91A8F6"/>
<path d="M504.9 51.2H502.4C501.8 51.2 501.3 51.7 501.3 52.3C501.3 52.9 501.8 53.4 502.4 53.4H504.9C505.5 53.4 506 52.9 506 52.3C506 51.7 505.5 51.2 504.9 51.2Z" fill="#91A8F6"/>
<path d="M507.8 46C507.2 46 506.7 46.5 506.7 47.1V49.6C506.7 50.2 507.2 50.7 507.8 50.7C508.4 50.7 508.9 50.2 508.9 49.6V47.1C508.9 46.5 508.4 46 507.8 46Z" fill="#91A8F6"/>
<path d="M513.1 51H510.6C510 51 509.5 51.5 509.5 52.1C509.5 52.7 510 53.2 510.6 53.2H513.1C513.7 53.2 514.2 52.7 514.2 52.1C514.2 51.5 513.7 51 513.1 51Z" fill="#91A8F6"/>
<path d="M406.9 0H382.2C381.6 0 381.1 0.5 381.1 1.1C381.1 1.7 381.6 2.2 382.2 2.2H406.9C407.5 2.2 408 1.7 408 1.1C408 0.5 407.5 0 406.9 0Z" fill="#91A8F6"/>
<path d="M374.4 0H369.6C369 0 368.5 0.5 368.5 1.1C368.5 1.7 369 2.2 369.6 2.2H374.4C375 2.2 375.5 1.7 375.5 1.1C375.4 0.5 375 0 374.4 0Z" fill="#91A8F6"/>
<path d="M395.3 8.6C395.3 9.2 394.8 9.7 394.2 9.7H391.1C390.5 9.7 390 9.2 390 8.6C390 8 390.5 7.5 391.1 7.5H394.2C394.8 7.5 395.3 8 395.3 8.6ZM386.8 8.6C386.8 9.2 386.3 9.7 385.7 9.7H380.3C379.7 9.7 379.2 9.2 379.2 8.6C379.2 8 379.7 7.5 380.3 7.5H385.7C386.3 7.5 386.8 8 386.8 8.6ZM376 8.6C376 9.2 375.5 9.7 374.9 9.7H369.5C368.9 9.7 368.4 9.2 368.4 8.6C368.4 8 368.9 7.5 369.5 7.5H374.9C375.5 7.5 376 8 376 8.6Z" fill="#91A8F6"/>
<path d="M672.7 113.3C672.7 115.4 674.4 117.1 676.5 117.1C678.6 117.1 680.3 115.4 680.3 113.3C680.3 111.2 678.6 109.5 676.5 109.5C674.4 109.5 672.7 111.2 672.7 113.3Z" fill="#91A8F6"/>
<path d="M172 300.4H196.7C197.3 300.4 197.8 299.9 197.8 299.3C197.8 298.7 197.3 298.2 196.7 298.2H172C171.4 298.2 170.9 298.7 170.9 299.3C171 299.9 171.4 300.4 172 300.4Z" fill="#91A8F6"/>
<path d="M159.3 300.4H164.1C164.7 300.4 165.2 299.9 165.2 299.3C165.2 298.7 164.7 298.2 164.1 298.2H159.3C158.7 298.2 158.2 298.7 158.2 299.3C158.3 299.9 158.7 300.4 159.3 300.4Z" fill="#91A8F6"/>
<path d="M697.9 169.4C697.9 169.4 699.4 179.9 687.1 179.7C687.1 179.7 697.7 179.8 697.4 189.7C697.4 189.7 698.4 181.9 708.1 180.2C708 180.2 699.8 182.1 697.9 169.4Z" fill="#91A8F6"/>
<path d="M625.6 318.8C625.6 318.8 627.1 329.3 614.8 329.1C614.8 329.1 625.4 329.2 625.1 339.1C625.1 339.1 626.1 331.3 635.8 329.6C635.7 329.5 627.5 331.4 625.6 318.8Z" fill="#91A8F6"/>
<path d="M307.6 26.8C307.6 26.8 309.1 37.3 296.8 37.1C296.8 37.1 307.4 37.2 307.1 47.1C307.1 47.1 308.1 39.3 317.8 37.6C317.7 37.6 309.5 39.4 307.6 26.8Z" fill="#91A8F6"/>
<path d="M201.7 55.9C201.7 55.9 203.2 66.4 190.9 66.2C190.9 66.2 201.5 66.3 201.2 76.2C201.2 76.2 202.2 68.4 211.9 66.7C211.8 66.7 203.6 68.5 201.7 55.9Z" fill="#91A8F6"/>
<path d="M265.9 10.9C265.9 10.9 266.4 14.6 262.1 14.5C262.1 14.5 265.8 14.5 265.7 18C265.7 18 266 15.3 269.4 14.7C269.4 14.6 266.6 15.3 265.9 10.9Z" fill="#91A8F6"/>
<path d="M458.6 137.5C458.6 137.5 459.1 141.2 454.8 141.1C454.8 141.1 458.5 141.1 458.4 144.6C458.4 144.6 458.7 141.9 462.1 141.3C462.1 141.2 459.3 141.9 458.6 137.5Z" fill="#91A8F6"/>
<path d="M101.6 200.2C101.6 200.2 102.1 203.9 97.7998 203.8C97.7998 203.8 101.5 203.8 101.4 207.3C101.4 207.3 101.7 204.6 105.1 204C105.1 204 102.2 204.6 101.6 200.2Z" fill="#91A8F6"/>
<path d="M422 299.2C422 299.2 422.5 302.9 418.2 302.8C418.2 302.8 421.9 302.8 421.8 306.3C421.8 306.3 422.1 303.6 425.5 303C425.5 303 422.6 303.6 422 299.2Z" fill="#91A8F6"/>
<path d="M276.2 240H252.2C249.1 240 246.6 237.5 246.6 234.4C246.6 231.4 249 228.9 252 228.8C252.1 224.1 255.9 220.3 260.6 220.3C263.5 220.3 266.2 221.8 267.8 224.2C271 223.7 273.9 225.8 274.7 228.8H276.1C279.2 228.8 281.7 231.3 281.7 234.4C281.7 237.5 279.2 240 276.2 240ZM252.2 230.5C250 230.5 248.3 232.3 248.3 234.4C248.3 236.6 250.1 238.3 252.2 238.3H276.2C278.4 238.3 280.1 236.5 280.1 234.4C280.1 232.2 278.3 230.5 276.2 230.5H273.4L273.3 229.8C272.9 227.2 270.4 225.3 267.6 226L267 226.1L266.7 225.6C265.5 223.4 263.1 222 260.6 222C256.8 222 253.6 225.1 253.6 229C253.6 229.2 253.6 229.4 253.6 229.6L253.7 230.5H252.2Z" fill="#91A8F6"/>
<path d="M704.4 36.9H680.4C677.3 36.9 674.8 34.4 674.8 31.3C674.8 28.3 677.2 25.8 680.2 25.7C680.3 21 684.1 17.2 688.8 17.2C691.7 17.2 694.4 18.7 696 21.1C699.2 20.6 702.1 22.7 702.9 25.7H704.3C707.4 25.7 709.9 28.2 709.9 31.3C709.9 34.4 707.5 36.9 704.4 36.9ZM680.4 27.4C678.2 27.4 676.5 29.2 676.5 31.3C676.5 33.4 678.3 35.2 680.4 35.2H704.4C706.6 35.2 708.3 33.4 708.3 31.3C708.3 29.2 706.5 27.4 704.4 27.4H701.6L701.5 26.7C701.1 24.1 698.6 22.2 695.8 22.9L695.2 23L694.9 22.5C693.7 20.3 691.3 18.9 688.8 18.9C685 18.9 681.8 22 681.8 25.9C681.8 26.1 681.8 26.3 681.8 26.5L681.9 27.4H680.4Z" fill="#91A8F6"/>
<path d="M332.7 98.2H308.7C305.6 98.2 303.1 95.7 303.1 92.6C303.1 89.6 305.5 87.1 308.5 87C308.6 82.3 312.4 78.5 317.1 78.5C320 78.5 322.7 80 324.3 82.4C327.5 81.9 330.4 84 331.2 87H332.6C335.7 87 338.2 89.5 338.2 92.6C338.3 95.7 335.8 98.2 332.7 98.2ZM308.7 88.7C306.5 88.7 304.8 90.5 304.8 92.6C304.8 94.8 306.6 96.5 308.7 96.5H332.7C334.9 96.5 336.6 94.7 336.6 92.6C336.6 90.4 334.8 88.7 332.7 88.7H329.9L329.8 88C329.4 85.4 326.9 83.5 324.1 84.2L323.5 84.3L323.2 83.8C322 81.6 319.6 80.2 317.1 80.2C313.3 80.2 310.1 83.3 310.1 87.2C310.1 87.4 310.1 87.6 310.1 87.8L310.2 88.7H308.7Z" fill="#91A8F6"/>
<path d="M365.1 389.7H511.6C515.7 389.7 516.9 386.4 516.9 382.3H357.7C357.7 386.4 361.1 389.7 365.1 389.7Z" fill="#487487"/>
<path d="M356.7 382.3H408.6C408.6 386.4 404.8 389.7 400.2 389.7H366.2H356.5C351.6 389.6 351.9 382.3 356.7 382.3Z" fill="#487487"/>
<path d="M411.8 384.4H517C520.1 384.4 522.8 382.2 523.4 379.1L537.6 318.3C538.4 314.3 535.3 310.6 531.2 310.6H426C422.9 310.6 420.2 312.8 419.6 315.9L405.4 376.7C404.7 380.7 407.7 384.4 411.8 384.4Z" fill="#A7B1B7"/>
<path d="M419.6 315.9C419.9 314.2 420.9 312.8 422.2 311.8C424.2 313.2 425.3 315.7 424.8 318.3L410.6 379.1C410.3 380.8 409.3 382.2 408 383.2C406 381.8 404.9 379.3 405.4 376.7L419.6 315.9Z" fill="#487487"/>
<path d="M485.7 355.3H468.5C465 355.3 462.1 352.4 462.1 348.9C462.1 345.4 465 342.5 468.5 342.5H485.7C489.2 342.5 492.1 345.4 492.1 348.9C492.1 352.4 489.3 355.3 485.7 355.3Z" fill="white"/>
<path d="M372.3 384.3H367.1C366.1 384.3 365.3 383.5 365.3 382.5C365.3 381.5 366.1 380.7 367.1 380.7H372.3C373.3 380.7 374.1 381.5 374.1 382.5C374.2 383.5 373.3 384.3 372.3 384.3Z" fill="#487487"/>
<path d="M382.4 384.3H377.2C376.2 384.3 375.4 383.5 375.4 382.5C375.4 381.5 376.2 380.7 377.2 380.7H382.4C383.4 380.7 384.2 381.5 384.2 382.5C384.3 383.5 383.4 384.3 382.4 384.3Z" fill="#487487"/>
<path d="M392.5 384.3H387.3C386.3 384.3 385.5 383.5 385.5 382.5C385.5 381.5 386.3 380.7 387.3 380.7H392.5C393.5 380.7 394.3 381.5 394.3 382.5C394.4 383.5 393.5 384.3 392.5 384.3Z" fill="#487487"/>
<path d="M402.6 384.3H397.4C396.4 384.3 395.6 383.5 395.6 382.5C395.6 381.5 396.4 380.7 397.4 380.7H402.6C403.6 380.7 404.4 381.5 404.4 382.5C404.5 383.5 403.6 384.3 402.6 384.3Z" fill="#487487"/>
<path d="M595.4 398.1H152.9C150.5 398.1 148.5 396.1 148.5 393.7C148.5 391.3 150.5 389.3 152.9 389.3H595.4C597.8 389.3 599.8 391.3 599.8 393.7C599.8 396.2 597.8 398.1 595.4 398.1Z" fill="#1B2A67"/>
<path d="M219.1 362C219.1 362 215.8 337.5 209.9 331.5L219.1 362Z" fill="#09936C"/>
<path d="M210.9 317C212.5 322.2 212.2 326.9 210.2 327.5C208.2 328.1 205.4 324.4 203.8 319.1C203.8 319 203.8 319 203.8 318.9C202.5 314.3 209.5 312.1 210.9 316.7C210.9 316.9 210.9 316.9 210.9 317Z" fill="#FFD2D4"/>
<path d="M220.301 328.6C215.101 330.2 210.401 329.9 209.801 327.9C209.201 325.9 212.901 323.1 218.201 321.5C218.301 321.5 218.301 321.5 218.401 321.5C223.001 320.2 225.201 327.2 220.601 328.6C220.401 328.6 220.301 328.6 220.301 328.6Z" fill="#FFD2D4"/>
<path d="M202.5 334C207.7 332.4 211.5 329.5 210.9 327.6C210.3 325.6 205.6 325.3 200.4 326.9C200.3 326.9 200.3 326.9 200.2 326.9C195.6 328.4 197.7 335.4 202.4 334C202.3 334 202.4 334 202.5 334Z" fill="#FFD2D4"/>
<path d="M211.201 339.9C212.701 334.7 212.201 330 210.301 329.4C208.301 328.8 205.501 332.6 204.101 337.9C204.101 338 204.101 338 204.101 338.1C202.901 342.8 209.901 344.7 211.301 340.1C211.201 340 211.201 340 211.201 339.9Z" fill="#FFD2D4"/>
<path d="M216.3 338.4C212.2 334.8 209.9 330.7 211.3 329.1C212.6 327.5 217.1 329.2 221.2 332.7L221.3 332.8C224.9 336 220.1 341.6 216.4 338.4C216.3 338.5 216.3 338.5 216.3 338.4Z" fill="#FFD2D4"/>
<path d="M212.7 328.2C213.1 329.5 212.3 331 211 331.4C209.7 331.8 208.2 331 207.8 329.7C207.4 328.4 208.2 326.9 209.5 326.5C210.8 326.1 212.3 326.8 212.7 328.2Z" fill="#D15E79"/>
<path d="M209.5 346.3C216.3 351.6 220.1 358 218.1 360.6C216.1 363.2 209 360.9 202.2 355.6C195.4 350.3 193.6 341.3 193.6 341.3C193.6 341.3 202.7 340.9 209.5 346.3Z" fill="#09936C"/>
<path d="M233.3 354.4C226.1 361.1 218.3 364.4 215.8 361.7C213.3 359 217 351.4 224.1 344.6C231.3 337.9 241.6 337.3 241.6 337.3C241.6 337.3 240.5 347.7 233.3 354.4Z" fill="#09936C"/>
<path d="M228.1 390.8H204.7L200.6 361.3H232.1L228.1 390.8Z" fill="#1B2A67"/>
<path d="M233.6 368.9H199.2C198.4 368.9 197.7 368.2 197.7 367.4V359.4C197.7 358.6 198.4 357.9 199.2 357.9H233.6C234.4 357.9 235.1 358.6 235.1 359.4V367.4C235 368.2 234.4 368.9 233.6 368.9Z" fill="#1B2A67"/>
<path d="M288.3 167.9L299.9 180.3L388.3 143.4L288.3 167.9Z" fill="#445EEA"/>
<path d="M292.4 126.8L283.7 140L289.6 152.9L276.3 155.1L264.6 180.8L391.2 142.6L292.4 126.8Z" fill="#91A8F6"/>
<path d="M289.6 152.9L283.7 140L352.2 143.2L289.6 152.9Z" fill="#445EEA"/>
<path d="M282.9 280.6C281.9 280.6 281 280.6 280 280.6C279 280.6 278.2 279.8 278.2 278.8C278.2 277.8 279.1 276.9 280 277C284.6 277.1 289.2 277 294.2 276.8H294.3C295.2 276.8 296 277.5 296.1 278.5C296.1 279.5 295.4 280.3 294.4 280.3C290.3 280.5 286.6 280.6 282.9 280.6ZM265.8 279.9C265.7 279.9 265.7 279.9 265.6 279.9C260.7 279.5 255.9 278.9 251.3 278C250.3 277.8 249.7 276.9 249.9 275.9C250.1 274.9 251 274.3 252 274.5C256.5 275.3 261.2 275.9 266 276.3C267 276.4 267.7 277.2 267.6 278.2C267.5 279.2 266.7 279.9 265.8 279.9ZM237.8 274.8C237.6 274.8 237.5 274.8 237.3 274.7C232.6 273.3 228.1 271.5 223.8 269.5C222.9 269.1 222.5 268 222.9 267.1C223.3 266.2 224.4 265.8 225.3 266.2C229.5 268.1 233.8 269.8 238.4 271.2C239.3 271.5 239.9 272.5 239.6 273.4C239.3 274.3 238.6 274.8 237.8 274.8ZM212.1 262.7C211.8 262.7 211.4 262.6 211.1 262.4C207.1 259.7 203.2 256.7 199.7 253.4C199 252.7 198.9 251.6 199.6 250.9C200.3 250.2 201.4 250.1 202.1 250.8C205.5 253.9 209.2 256.8 213.1 259.4C213.9 259.9 214.1 261 213.6 261.9C213.3 262.4 212.7 262.7 212.1 262.7ZM191.2 243.5C190.7 243.5 190.2 243.3 189.8 242.8C186.8 239 184 235 181.7 230.8C181.2 230 181.5 228.9 182.4 228.4C183.3 227.9 184.3 228.2 184.8 229.1C187.1 233.1 189.7 237 192.6 240.7C193.2 241.5 193.1 242.6 192.3 243.2C192 243.4 191.6 243.5 191.2 243.5ZM177.2 218.8C176.5 218.8 175.8 218.4 175.5 217.7C173.8 213.1 172.4 208.4 171.5 203.7C171.3 202.7 171.9 201.8 172.9 201.6C173.9 201.4 174.8 202 175 203C175.9 207.5 177.2 212 178.8 216.4C179.1 217.3 178.7 218.3 177.8 218.7C177.6 218.8 177.4 218.8 177.2 218.8ZM171.5 191C170.6 191 169.8 190.3 169.7 189.3C169.5 186.4 169.4 183.3 169.4 180.2V179.5C169.4 178 169.4 176.4 169.5 174.9C169.5 173.9 170.3 173.2 171.3 173.2C171.3 173.2 171.3 173.2 171.4 173.2C172.4 173.2 173.1 174.1 173.1 175C173.1 176.5 173 178 173 179.5V180.2C173 183.2 173.1 186.2 173.3 189C173.4 190 172.6 190.8 171.6 190.9C171.6 191 171.5 191 171.5 191Z" fill="#445EEA"/>
<path d="M186.4 162.8C183.7 162.8 181 162.8 178.4 162.7C177.4 162.7 176.6 161.9 176.7 160.9C176.7 159.9 177.5 159.2 178.5 159.2C183.1 159.3 187.8 159.3 192.7 159.2C193.8 159.1 194.5 160 194.5 160.9C194.5 161.9 193.7 162.7 192.8 162.7C190.6 162.8 188.5 162.8 186.4 162.8ZM207 162.3C206.1 162.3 205.3 161.6 205.2 160.6C205.1 159.6 205.9 158.8 206.9 158.7C211.5 158.4 216.3 158.1 221.1 157.7C222 157.6 222.9 158.3 223 159.3C223.1 160.3 222.4 161.1 221.4 161.2C216.6 161.6 211.8 162 207.1 162.2C207 162.3 207 162.3 207 162.3ZM164.2 162H164.1C159.2 161.6 154.4 161.1 149.8 160.4C148.8 160.3 148.2 159.4 148.3 158.4C148.4 157.4 149.4 156.8 150.3 156.9C154.8 157.5 159.5 158.1 164.4 158.4C165.4 158.5 166.1 159.3 166 160.3C165.9 161.3 165.2 162 164.2 162ZM235.4 159.8C234.5 159.8 233.7 159.1 233.6 158.2C233.5 157.2 234.2 156.3 235.2 156.2C239.8 155.7 244.5 155.1 249.3 154.4C250.3 154.2 251.2 154.9 251.3 155.9C251.4 156.9 250.8 157.8 249.8 157.9C245 158.6 240.3 159.2 235.6 159.7C235.5 159.8 235.4 159.8 235.4 159.8ZM136.1 157.9C136 157.9 135.8 157.9 135.7 157.9C132.3 157.1 128.9 156.3 125.8 155.3C124.5 154.9 123.1 154.5 121.8 154C120.9 153.7 120.4 152.7 120.7 151.8C121 150.9 122 150.4 122.9 150.7C124.2 151.1 125.5 151.5 126.8 151.9C129.9 152.8 133.1 153.7 136.5 154.4C137.5 154.6 138.1 155.6 137.8 156.5C137.6 157.4 136.9 157.9 136.1 157.9ZM109.1 148.8C108.8 148.8 108.6 148.7 108.3 148.6C103.8 146.4 99.4999 143.9 95.7999 141.2C94.9999 140.6 94.7999 139.5 95.3999 138.7C95.9999 137.9 97.0999 137.7 97.8999 138.3C101.5 140.9 105.5 143.3 109.9 145.4C110.8 145.8 111.2 146.9 110.7 147.8C110.4 148.5 109.8 148.8 109.1 148.8ZM170.2 147.2C169.2 147.2 168.4 146.4 168.4 145.4V144.8C168.4 140.3 168.2 135.8 167.9 131.3C167.8 130.3 168.6 129.5 169.5 129.4C170.4 129.3 171.3 130.1 171.4 131C171.8 135.6 171.9 140.2 171.9 144.8V145.4C171.9 146.5 171.1 147.2 170.2 147.2ZM86.1999 132.2C85.6999 132.2 85.1999 132 84.8999 131.6C81.5999 128 78.6999 124 76.3999 119.7C75.8999 118.8 76.1999 117.8 77.0999 117.3C77.9999 116.8 78.9999 117.2 79.4999 118C81.6999 122 84.3999 125.8 87.4999 129.2C88.1999 129.9 88.0999 131 87.3999 131.7C86.9999 132.1 86.5999 132.2 86.1999 132.2ZM167.9 118.8C167.1 118.8 166.3 118.2 166.2 117.3C165.4 112.5 164.3 107.9 163.1 103.6C162.8 102.7 163.4 101.7 164.3 101.4C165.2 101.1 166.2 101.7 166.5 102.6C167.8 107 168.9 111.7 169.7 116.7C169.9 117.7 169.2 118.6 168.3 118.7C168.1 118.8 168 118.8 167.9 118.8ZM72.5999 107.5C71.7999 107.5 71.0999 107 70.8999 106.2C70.6999 105.4 70.4999 104.6 70.2999 103.8C69.6999 101.1 69.3999 98.5 69.3999 95.9C69.3999 94.4 69.4999 92.8 69.6999 91.4C69.7999 90.4 70.7999 89.8 71.6999 89.9C72.6999 90 73.2999 91 73.1999 91.9C72.9999 93.2 72.8999 94.6 72.8999 95.9C72.8999 98.2 73.1999 100.5 73.7999 102.9C73.9999 103.7 74.1999 104.4 74.3999 105.2C74.6999 106.1 74.0999 107.1 73.1999 107.4C72.8999 107.5 72.6999 107.5 72.5999 107.5ZM159.7 91.6C159 91.6 158.4 91.2 158.1 90.6C156 86.2 153.5 82.2 150.8 78.9C150.2 78.1 150.3 77 151.1 76.4C151.9 75.8 153 75.9 153.6 76.7C156.5 80.3 159.1 84.5 161.3 89.1C161.7 90 161.4 91 160.5 91.5C160.2 91.5 159.9 91.6 159.7 91.6ZM76.9999 80.4C76.5999 80.4 76.1999 80.3 75.8999 80C75.0999 79.4 74.9999 78.3 75.5999 77.5C78.3999 73.8 82.1999 70.5 86.6999 67.7C87.4999 67.2 88.5999 67.5 89.0999 68.3C89.5999 69.1 89.2999 70.2 88.4999 70.7C84.3999 73.2 80.8999 76.2 78.3999 79.6C77.9999 80.2 77.4999 80.4 76.9999 80.4ZM141.7 69.9C141.4 69.9 141 69.8 140.7 69.6C136.9 67.1 132.8 65.3 128.3 64.2C127.4 64 126.8 63 127 62.1C127.2 61.2 128.2 60.6 129.1 60.8C134 62 138.5 64 142.6 66.7C143.4 67.2 143.6 68.3 143.1 69.2C142.9 69.6 142.3 69.9 141.7 69.9ZM100.6 65.4C99.7999 65.4 99.0999 64.9 98.8999 64.1C98.5999 63.2 99.1999 62.2 100.1 61.9C104.6 60.6 109.3 59.7 114 59.4H114.5C115.4 59.4 116.3 60.2 116.3 61.1C116.3 62.1 115.5 62.9 114.6 62.9H114.2C109.7 63.2 105.3 64 101 65.3C101 65.4 100.8 65.4 100.6 65.4Z" fill="#445EEA"/>
<path d="M527.4 77.5H622.2C634.1 77.5 643.7 87.1 643.7 99V147.9C643.7 159.8 634.1 169.4 622.2 169.4H560.2L537.9 189V169.3H527.4C515.5 169.3 505.9 159.7 505.9 147.8V98.9C505.9 87.1 515.6 77.5 527.4 77.5Z" fill="#445EEA"/>
<path d="M541.2 107.7H608.4C609.9 107.7 611.1 106.5 611.1 105C611.1 103.5 609.9 102.3 608.4 102.3H541.2C539.7 102.3 538.5 103.5 538.5 105C538.5 106.5 539.7 107.7 541.2 107.7Z" fill="#91A8F6"/>
<path d="M541.2 125.6H608.4C609.9 125.6 611.1 124.4 611.1 122.9C611.1 121.4 609.9 120.2 608.4 120.2H541.2C539.7 120.2 538.5 121.4 538.5 122.9C538.5 124.4 539.7 125.6 541.2 125.6Z" fill="#91A8F6"/>
<path d="M598.6 143.6H608.5C610 143.6 611.2 142.4 611.2 140.9C611.2 139.4 610 138.2 608.5 138.2H598.6C597.1 138.2 595.9 139.4 595.9 140.9C595.9 142.4 597.1 143.6 598.6 143.6Z" fill="#91A8F6"/>
<path d="M576.2 143.6H586.1C587.6 143.6 588.8 142.4 588.8 140.9C588.8 139.4 587.6 138.2 586.1 138.2H576.2C574.7 138.2 573.5 139.4 573.5 140.9C573.5 142.4 574.7 143.6 576.2 143.6Z" fill="#91A8F6"/>
<path d="M541.2 143.6H563.6C565.1 143.6 566.3 142.4 566.3 140.9C566.3 139.4 565.1 138.2 563.6 138.2H541.2C539.7 138.2 538.5 139.4 538.5 140.9C538.5 142.4 539.7 143.6 541.2 143.6Z" fill="#91A8F6"/>
<path d="M497.8 182.1H425.2C418.1 182.1 412.3 187.9 412.3 195V236.9C412.3 243.7 417.6 249.3 424.3 249.8L409.3 274.3L448.7 249.8H497.7C504.8 249.8 510.6 244 510.6 236.9V195C510.8 187.8 505 182.1 497.8 182.1Z" fill="#91A8F6"/>
<path d="M467.624 211.901C470.983 208.542 470.983 203.097 467.624 199.738C464.266 196.38 458.82 196.38 455.462 199.738C452.103 203.097 452.103 208.542 455.462 211.901C458.82 215.259 464.266 215.259 467.624 211.901Z" fill="#445EEA" stroke="#445EEA" stroke-width="2.7611" stroke-miterlimit="10" stroke-linecap="round" stroke-linejoin="round"/>
<path d="M481.9 234.7H441.3C441.3 227.5 447.1 221.7 454.3 221.7H468.9C476 221.6 481.9 227.5 481.9 234.7Z" fill="#445EEA" stroke="#445EEA" stroke-width="2.7611" stroke-miterlimit="10" stroke-linecap="round" stroke-linejoin="round"/>
<path d="M427.8 107.1C425.4 107.1 423 106.9 420.6 106.4C419.6 106.2 419 105.3 419.2 104.3C419.4 103.3 420.4 102.7 421.3 102.9C424.9 103.7 428.8 103.8 432.4 103.2C433.4 103.1 434.3 103.7 434.4 104.7C434.5 105.7 433.9 106.6 432.9 106.7C431.3 106.9 429.6 107.1 427.8 107.1ZM443.9 102.9C443.3 102.9 442.7 102.6 442.3 102C441.8 101.1 442.1 100.1 443 99.6C446.3 97.8 449.2 95.4 451.6 92.6C452.2 91.9 453.4 91.8 454.1 92.4C454.8 93 454.9 94.2 454.3 94.9C451.6 98.1 448.3 100.7 444.7 102.7C444.5 102.8 444.2 102.9 443.9 102.9ZM410.1 102C409.8 102 409.5 101.9 409.2 101.7C405.7 99.5 402.6 96.7 400 93.4C399.4 92.6 399.5 91.5 400.3 90.9C401.1 90.3 402.2 90.4 402.8 91.2C405.1 94.2 407.9 96.7 411 98.7C411.8 99.2 412.1 100.3 411.6 101.1C411.3 101.7 410.7 102 410.1 102ZM459 85.4C458.8 85.4 458.6 85.4 458.4 85.3C457.5 85 457 83.9 457.4 83C458.7 79.5 459.4 75.8 459.4 72C459.4 71 460.2 70.2 461.2 70.2C462.2 70.2 463 71 463 72C463 76.2 462.3 80.3 460.8 84.2C460.4 84.9 459.7 85.4 459 85.4ZM396 83.6C395.2 83.6 394.5 83.1 394.3 82.3C393.3 79 392.8 75.5 392.7 72C392.7 71.3 392.7 70.7 392.8 70C392.9 69 393.7 68.3 394.7 68.3C395.7 68.4 396.4 69.2 396.4 70.2C396.4 70.8 396.4 71.4 396.4 72C396.4 75.2 396.9 78.3 397.8 81.3C398.1 82.2 397.6 83.2 396.6 83.5C396.4 83.6 396.2 83.6 396 83.6ZM460.1 65.8C459.3 65.8 458.6 65.3 458.4 64.5C457.5 60.9 456 57.4 453.8 54.3C453.2 53.5 453.5 52.4 454.3 51.8C455.1 51.2 456.2 51.5 456.8 52.3C459.2 55.8 460.9 59.6 461.9 63.6C462.1 64.6 461.6 65.5 460.6 65.7C460.4 65.7 460.2 65.8 460.1 65.8ZM397.3 60.5C397.1 60.5 396.8 60.5 396.6 60.3C395.7 59.9 395.3 58.9 395.7 58C397.4 54.2 399.7 50.7 402.6 47.7C403.3 47 404.4 47 405.1 47.7C405.8 48.4 405.8 49.5 405.1 50.2C402.5 52.9 400.4 56 398.9 59.5C398.6 60.1 398 60.5 397.3 60.5ZM447.1 46.6C446.7 46.6 446.4 46.5 446.1 46.3C443 44.1 439.7 42.5 436 41.6C435.1 41.3 434.5 40.4 434.7 39.4C435 38.5 435.9 37.9 436.9 38.1C440.9 39.2 444.7 41 448.1 43.4C448.9 44 449.1 45.1 448.5 45.9C448.2 46.4 447.6 46.6 447.1 46.6ZM413.4 43.8C412.7 43.8 412.1 43.4 411.8 42.8C411.4 41.9 411.7 40.9 412.6 40.4C416.4 38.6 420.4 37.5 424.5 37.1C425.4 37 426.3 37.7 426.4 38.7C426.5 39.7 425.8 40.5 424.8 40.6C421.1 40.9 417.4 42 414.1 43.6C413.9 43.7 413.6 43.8 413.4 43.8Z" fill="#445EEA"/>
<path d="M427.799 55.2C414.999 55.2 404.5 62.1 404.5 70.6C404.5 72.8 406.3 74.3 407.9 73.6L414 71C415.5 70.4 416.2 68.2 415.5 66.4L414.7 64.4C414.7 64.4 425.9 66.4 440.6 64.4L440 67C439.5 68.7 440.1 70.5 441.4 71.2L447.4 74.5C448.9 75.3 450.6 74.2 450.9 72.2C451 71.6 451 71.1 451 70.5C451.1 62 440.7 55.2 427.799 55.2Z" fill="#445EEA"/>
<path d="M443.9 88.9H411.7L416.5 73.9C417.4 71.1 420 69.2 422.9 69.2H432.7C435.6 69.2 438.3 71.1 439.1 73.9L443.9 88.9Z" fill="#91A8F6"/>
<path d="M635.5 289.3C633.1 289.3 630.699 289.1 628.299 288.6C627.299 288.4 626.7 287.5 626.9 286.5C627.1 285.5 628.1 284.9 629 285.1C632.6 285.9 636.499 286 640.099 285.4C641.099 285.3 641.999 285.9 642.099 286.9C642.199 287.9 641.599 288.8 640.599 288.9C638.999 289.2 637.3 289.3 635.5 289.3ZM651.599 285.1C650.999 285.1 650.4 284.8 650 284.2C649.5 283.3 649.8 282.3 650.7 281.8C654 280 656.899 277.6 659.299 274.8C659.899 274.1 661.099 274 661.799 274.6C662.5 275.2 662.6 276.4 662 277.1C659.3 280.3 656 282.9 652.4 284.9C652.2 285.1 651.899 285.1 651.599 285.1ZM617.799 284.2C617.5 284.2 617.2 284.1 616.9 283.9C613.4 281.7 610.3 278.9 607.7 275.6C607.1 274.8 607.2 273.7 608 273.1C608.8 272.5 609.9 272.6 610.5 273.4C612.8 276.4 615.6 278.9 618.7 280.9C619.5 281.4 619.799 282.5 619.299 283.3C619 283.9 618.399 284.2 617.799 284.2ZM666.7 267.6C666.5 267.6 666.299 267.6 666.099 267.5C665.199 267.2 664.699 266.1 665.099 265.2C666.399 261.7 667.099 258 667.099 254.2C667.099 253.2 667.9 252.4 668.9 252.4C669.9 252.4 670.7 253.2 670.7 254.2C670.7 258.4 670 262.5 668.5 266.4C668.1 267.2 667.4 267.6 666.7 267.6ZM603.7 265.8C602.9 265.8 602.2 265.3 602 264.5C601 261.2 600.5 257.7 600.5 254.2C600.5 253.5 600.499 252.9 600.599 252.2C600.699 251.2 601.6 250.5 602.5 250.5C603.5 250.6 604.2 251.4 604.2 252.4C604.2 253 604.2 253.6 604.2 254.2C604.2 257.4 604.699 260.5 605.599 263.5C605.899 264.4 605.4 265.4 604.4 265.7C604.1 265.8 603.9 265.8 603.7 265.8ZM667.799 248C666.999 248 666.299 247.5 666.099 246.7C665.199 243.1 663.7 239.6 661.5 236.5C660.9 235.7 661.2 234.6 662 234C662.8 233.4 663.9 233.7 664.5 234.5C666.9 237.9 668.599 241.8 669.599 245.8C669.799 246.7 669.299 247.7 668.299 247.9C668.1 248 667.899 248 667.799 248ZM605 242.7C604.8 242.7 604.499 242.7 604.299 242.5C603.399 242.1 603 241.1 603.4 240.2C605.1 236.4 607.399 232.9 610.299 229.9C610.999 229.2 612.099 229.2 612.799 229.9C613.499 230.6 613.499 231.7 612.799 232.4C610.199 235.1 608.099 238.2 606.599 241.7C606.299 242.3 605.7 242.7 605 242.7ZM654.799 228.9C654.399 228.9 654.099 228.8 653.799 228.6C650.7 226.4 647.3 224.8 643.7 223.9C642.8 223.6 642.2 222.7 642.4 221.7C642.7 220.8 643.599 220.2 644.599 220.4C648.599 221.5 652.399 223.3 655.799 225.7C656.599 226.3 656.8 227.4 656.2 228.2C655.9 228.6 655.299 228.9 654.799 228.9ZM621.099 226C620.399 226 619.8 225.6 619.5 225C619.1 224.1 619.399 223.1 620.299 222.6C624.099 220.8 628.1 219.7 632.2 219.3C633.2 219.2 633.999 219.9 634.099 220.9C634.199 221.9 633.5 222.7 632.5 222.8C628.8 223.1 625.099 224.1 621.799 225.8C621.599 226 621.299 226 621.099 226Z" fill="#445EEA"/>
<path d="M655.8 247.9H614.6V271.3H655.8V247.9Z" fill="#91A8F6"/>
<path d="M650.2 246.1V243.2C650.2 241.1 651.9 239.4 654 239.4C656.1 239.4 657.8 241.1 657.8 243.2V247.9H650.2" fill="#445EEA"/>
<path d="M650.3 243.2V267.5H622.2V243.2C622.2 241.1 623.9 239.4 626 239.4H653.8L653 239.6C651.4 240 650.3 241.4 650.3 243.2Z" fill="#E0EEF7"/>
<path d="M630.1 243.3H623.9V249.7H630.1V243.3Z" fill="#445EEA"/>
<path d="M632 243.3H647.9" stroke="#445EEA" stroke-width="0.6576" stroke-miterlimit="10" stroke-linecap="round" stroke-linejoin="round"/>
<path d="M632 245.4H647.9" stroke="#445EEA" stroke-width="0.6576" stroke-miterlimit="10" stroke-linecap="round" stroke-linejoin="round"/>
<path d="M632 247.6H647.9" stroke="#445EEA" stroke-width="0.6576" stroke-miterlimit="10" stroke-linecap="round" stroke-linejoin="round"/>
<path d="M632.2 249.7H648" stroke="#445EEA" stroke-width="0.6576" stroke-miterlimit="10" stroke-linecap="round" stroke-linejoin="round"/>
<path d="M623.9 251.9H647.9" stroke="#445EEA" stroke-width="0.6576" stroke-miterlimit="10" stroke-linecap="round" stroke-linejoin="round"/>
<path d="M623.9 254H647.9" stroke="#445EEA" stroke-width="0.6576" stroke-miterlimit="10" stroke-linecap="round" stroke-linejoin="round"/>
<path d="M623.9 256.1H647.9" stroke="#445EEA" stroke-width="0.6576" stroke-miterlimit="10" stroke-linecap="round" stroke-linejoin="round"/>
<path d="M623.9 258.3H635.6" stroke="#445EEA" stroke-width="0.6576" stroke-miterlimit="10" stroke-linecap="round" stroke-linejoin="round"/>
<path d="M645.7 271.3H614.6V247.9L645.7 271.3Z" fill="#445EEA"/>
<path d="M624.7 271.3H655.9V247.9L624.7 271.3Z" fill="#445EEA"/>
<path d="M655.9 271.3H635.3H614.7L633.2 261.4C634.5 260.5 636.1 260.5 637.4 261.4L655.9 271.3Z" fill="#445EEA"/>
<path d="M294.3 90.1C294.3 101.3 285.2 110.4 274 110.4H243.4C232.2 110.4 223.1 101.3 223.1 90.1V59.5C223.1 48.3 232.2 39.2 243.4 39.2H274C285.2 39.2 294.3 48.3 294.3 59.5V90.1Z" fill="#91A8F6"/>
<path d="M266.3 96.5C260.5 96.5 255.9 95.6 252.5 93.8C249.7 92.6 247.8 92.7 247.7 92.7L246.2 92.9V91.4V71.2H247.5C247.8 71.2 253.9 71.2 257.6 68.1C261.5 64.9 263.5 60.8 265 57.8C266.3 55.2 267.2 53.5 268.7 53.1C270 52.8 271.3 53.5 272.2 54.9C273.5 57 274 60.8 272.4 63.9C271.6 65.4 271 66.6 270.6 67.4C271.4 67.4 272.4 67.4 273.3 67.4C274.7 67.4 275.9 67.4 276.8 67.3C279 67.1 280.8 68.7 281.2 71.1C281.5 72.5 281.2 73.9 280.4 74.8C281.2 75.8 281.9 77 282 78.5C282 79.4 281.7 80.7 280.6 82C281.7 83.4 281.9 84.7 281.8 85.6C281.6 87 280.8 88.3 279.4 89.3C279.8 90.7 279.7 92 279.1 93.1C278.3 94.6 276.6 95.6 274.6 95.9C273 96.1 269.9 96.5 266.3 96.5ZM248.8 90.1C249.9 90.2 251.6 90.5 253.7 91.4C256.8 93 261 93.8 266.4 93.8C269.8 93.8 272.8 93.5 274.2 93.3C275.4 93.2 276.3 92.7 276.7 91.9C277.1 91.2 277 90.3 276.6 89.4L276 88.2L277.2 87.6C278.3 87 279.1 86.2 279.2 85.3C279.3 84.3 278.6 83.5 277.9 82.9L276.6 81.8L278 80.8C279 80.1 279.5 79.3 279.5 78.5C279.5 77.4 278.6 76.4 277.8 75.8L275.7 74.4L278 73.5C278.8 73.2 278.8 72.1 278.7 71.6C278.6 71 278.1 69.9 277.2 69.9C276.1 70 274.9 70 273.4 70C270.9 70 268.5 69.9 268.4 69.9L266.3 69.8L267.3 68C267.3 68 268.2 66.4 270.1 62.7C271.2 60.6 270.9 57.8 270 56.3C269.7 55.8 269.5 55.7 269.4 55.7C268.9 55.9 268 57.7 267.4 59C265.8 62.2 263.6 66.5 259.3 70.1C256 72.9 251.2 73.6 248.9 73.7V90.1H248.8Z" fill="white"/>
<path d="M248.7 96.5H235.5V66.6H248.7V96.5ZM238.1 93.9H246V69.3H238.1V93.9Z" fill="white"/>
<path d="M606.6 359.9C606.6 367.2 600.7 373.1 593.4 373.1H573.6C566.3 373.1 560.4 367.2 560.4 359.9V340C560.4 332.7 566.3 326.8 573.6 326.8H593.4C600.7 326.8 606.6 332.7 606.6 340V359.9Z" fill="white"/>
<path d="M593.4 374.3H573.6C565.6 374.3 559.1 367.8 559.1 359.8V340C559.1 332 565.6 325.5 573.6 325.5H593.4C601.4 325.5 607.9 332 607.9 340V359.8C607.9 367.8 601.4 374.3 593.4 374.3ZM573.6 328.2C567.1 328.2 561.8 333.5 561.8 340V359.8C561.8 366.3 567.1 371.6 573.6 371.6H593.4C599.9 371.6 605.2 366.3 605.2 359.8V340C605.2 333.5 599.9 328.2 593.4 328.2H573.6Z" fill="#91A8F6"/>
<path d="M583.5 363.8C575.9 363.8 569.7 357.6 569.7 350C569.7 342.4 575.9 336.2 583.5 336.2C591.1 336.2 597.3 342.4 597.3 350C597.3 357.6 591.1 363.8 583.5 363.8ZM583.5 338.8C577.3 338.8 572.3 343.8 572.3 350C572.3 356.2 577.3 361.2 583.5 361.2C589.7 361.2 594.7 356.2 594.7 350C594.7 343.8 589.7 338.8 583.5 338.8Z" fill="#91A8F6"/>
<path d="M597.1 334.8C597.1 336.2 595.9 337.4 594.5 337.4C593.1 337.4 591.9 336.2 591.9 334.8C591.9 333.4 593.1 332.2 594.5 332.2C595.9 332.2 597.1 333.4 597.1 334.8Z" fill="#91A8F6"/>
<path d="M154.8 217.1C163.1 231.5 158.3 283.5 158.3 283.5C158.3 283.5 111 261.5 102.7 247.1C94.4002 232.7 99.4002 214.4 113.8 206.1C128.1 197.7 146.5 202.7 154.8 217.1Z" fill="#445EEA"/>
<path d="M144.4 221.6C149.6 230.6 146.5 242.1 137.5 247.3C128.5 252.5 117 249.4 111.8 240.4C106.6 231.4 109.7 219.9 118.7 214.7C127.7 209.4 139.3 212.6 144.4 221.6Z" fill="white"/>
</g>
<defs>
<clipPath id="clip0">
<rect width="730.6" height="398.1" fill="white"/>
</clipPath>
</defs>
</svg>
